<?xml version="1.0" standalone="no"?>
<!DOCTYPE svg PUBLIC "-//W3C//DTD SVG 20010904//EN"
 "http://www.w3.org/TR/2001/REC-SVG-20010904/DTD/svg10.dtd">
<svg version="1.0" xmlns="http://www.w3.org/2000/svg"
 width="240.000000pt" height="240.000000pt" viewBox="0 0 240.000000 240.000000"
 preserveAspectRatio="xMidYMid meet">
<metadata>
Created by potrace 1.14, written by Peter Selinger 2001-2017
</metadata>
<g transform="translate(0.000000,240.000000) scale(0.100000,-0.100000)"
fill="#000000" stroke="none">
<path d="M750 2389 c-38 -9 -89 -18 -131 -24 -14 -2 -47 -15 -74 -29 -54 -29
-81 -32 -104 -13 -27 22 -163 59 -206 55 -43 -3 -43 -3 -31 -73 5 -31 -5 -58
-20 -54 -16 3 -32 -42 -29 -80 2 -20 9 -64 16 -98 10 -54 10 -64 -5 -78 -22
-23 -25 -83 -4 -96 7 -5 7 -16 1 -35 -6 -16 -8 -38 -6 -49 3 -16 9 -61 12 -97
2 -15 30 -8 43 10 21 30 50 42 64 27 7 -7 13 -21 13 -31 0 -11 0 -41 0 -69 0
-27 0 -66 0 -85 0 -19 1 -58 1 -87 0 -33 5 -55 13 -60 13 -7 30 -83 29 -128
-1 -11 6 -27 14 -36 19 -21 28 -69 14 -69 -6 0 -20 5 -32 11 -15 8 -18 17 -14
35 7 25 -22 64 -47 64 -22 0 -40 -45 -34 -86 10 -77 14 -94 27 -109 10 -12 9
-18 -4 -30 -24 -24 -20 -40 19 -78 19 -19 35 -39 35 -45 0 -6 9 -14 20 -17 11
-3 20 -15 20 -25 0 -15 -6 -18 -31 -15 -43 5 -48 -19 -10 -54 29 -27 31 -34
31 -94 0 -36 -4 -69 -10 -72 -15 -9 -2 -176 15 -195 21 -23 19 -30 -11 -30
-34 0 -78 -26 -97 -60 -18 -29 -47 -158 -47 -206 0 -43 18 -91 52 -141 l29
-43 835 0 c488 0 833 4 830 9 -3 5 8 6 27 2 45 -11 88 -4 117 19 14 11 48 30
75 43 153 73 244 278 171 388 -43 64 -97 97 -159 97 -28 -1 -65 4 -80 11 -16
6 -38 11 -51 11 -26 0 -69 -41 -71 -69 -1 -11 -14 -38 -30 -60 -24 -35 -26
-45 -17 -65 9 -20 7 -27 -7 -40 -27 -25 -51 -20 -51 10 0 14 -9 37 -19 51 -11
13 -23 44 -27 69 -3 24 -10 47 -15 50 -5 3 -9 19 -9 35 0 41 -25 48 -58 17
-51 -48 -66 -51 -91 -18 -16 23 -18 30 -7 30 21 0 84 77 91 111 4 16 12 35 19
42 68 70 123 225 93 265 -5 6 -6 12 -2 12 4 0 2 7 -5 15 -8 9 -8 15 -2 15 6 0
21 24 35 52 20 43 25 71 26 151 2 80 0 97 -12 97 -10 0 -17 15 -21 48 -12 98
-26 161 -40 170 -6 4 -21 28 -33 55 -13 26 -30 47 -38 47 -8 0 -15 6 -15 14 0
7 -6 19 -14 25 -11 9 -18 8 -30 -5 -10 -9 -18 -15 -20 -13 -62 87 -82 111
-110 133 -19 14 -39 26 -44 26 -6 0 -24 25 -41 55 -17 30 -36 55 -41 55 -5 0
-22 13 -37 28 -34 34 -75 55 -142 73 -49 12 -50 14 -57 56 -3 24 -10 43 -14
43 -4 0 -11 11 -14 25 -11 42 -114 137 -189 173 -73 36 -157 47 -227 31z m15
-399 c3 -5 1 -10 -4 -10 -6 0 -11 5 -11 10 0 6 2 10 4 10 3 0 8 -4 11 -10z
m90 -59 l50 -19 -38 -7 c-20 -4 -40 -11 -43 -16 -10 -17 -24 2 -24 32 0 16 1
29 3 29 1 0 25 -9 52 -19z"/>
</g>
</svg>
